<?xml version="1.0" encoding="UTF-8" standalone="no"?>
<!-- Created with Inkscape (http://www.inkscape.org/) -->

<svg
   xmlns:dc="http://purl.org/dc/elements/1.1/"
   xmlns:cc="http://creativecommons.org/ns#"
   xmlns:rdf="http://www.w3.org/1999/02/22-rdf-syntax-ns#"
   xmlns:svg="http://www.w3.org/2000/svg"
   xmlns="http://www.w3.org/2000/svg"
   xmlns:sodipodi="http://sodipodi.sourceforge.net/DTD/sodipodi-0.dtd"
   xmlns:inkscape="http://www.inkscape.org/namespaces/inkscape"
   id="svg3023"
   version="1.1"
   inkscape:version="0.48.2 r9819"
   width="283.7625"
   height="347.0875"
   xml:space="preserve"
   sodipodi:docname="logo_m_devis_white.eps"><metadata
     id="metadata3029"><rdf:RDF><cc:Work
         rdf:about=""><dc:format>image/svg+xml</dc:format><dc:type
           rdf:resource="http://purl.org/dc/dcmitype/StillImage" /><dc:title></dc:title></cc:Work></rdf:RDF></metadata><defs
     id="defs3027"><clipPath
       clipPathUnits="userSpaceOnUse"
       id="clipPath3039"><path
         d="m 0,0 2270,0 0,2776.71 -2270,0 L 0,0 z"
         id="path3041" /></clipPath></defs><sodipodi:namedview
     pagecolor="#ffffff"
     bordercolor="#666666"
     borderopacity="1"
     objecttolerance="10"
     gridtolerance="10"
     guidetolerance="10"
     inkscape:pageopacity="0"
     inkscape:pageshadow="2"
     inkscape:window-width="1131"
     inkscape:window-height="748"
     id="namedview3025"
     showgrid="false"
     inkscape:zoom="1.319552"
     inkscape:cx="141.88126"
     inkscape:cy="173.54375"
     inkscape:window-x="0"
     inkscape:window-y="0"
     inkscape:window-maximized="0"
     inkscape:current-layer="g3031" /><g
     id="g3031"
     inkscape:groupmode="layer"
     inkscape:label="ink_ext_XXXXXX"
     transform="matrix(1.25,0,0,-1.25,0,347.0875)"><g
       id="g3033"
       transform="matrix(0.1,0,0,0.1,-0.60626607,-1.2125327)"
       style="fill:#ffffff"><g
         id="g3035"
         style="fill:#ffffff"><g
           id="g3037"
           clip-path="url(#clipPath3039)"
           style="fill:#ffffff"><path
             d="m 472.535,4.55078 0,162.75822 41.649,0 0,-162.75822 -41.649,0 z m 21,192.85922 c -12.953,0 -23.801,12.602 -23.801,28.352 0,15.75 10.848,28.359 23.801,28.359 12.949,0 23.453,-12.609 23.453,-28.359 0,-15.75 -10.504,-28.352 -23.453,-28.352"
             style="fill:#ffffff;fill-opacity:1;fill-rule:nonzero;stroke:none"
             id="path3043"
             inkscape:connector-curvature="0" /><path
             d="m 653.84,4.55078 0,104.66022 c 0,20.301 -3.496,27.648 -13.652,27.648 -8.75,0 -21,-8.75 -39.204,-28.359 l -5.601,-5.949 0,-98.00022 -42,0 0,162.75822 42,0 0,-26.95 c 19.605,21.352 35.703,30.102 56.355,30.102 29.407,0 44.102,-15.41 44.102,-46.211 l 0,-119.69922 -42,0"
             style="fill:#ffffff;fill-opacity:1;fill-rule:nonzero;stroke:none"
             id="path3045"
             inkscape:connector-curvature="0" /><path
             d="m 913.879,117.602 c -4.543,3.507 -8.051,4.91 -12.59,4.91 -6.648,0 -14.004,-4.551 -20.305,-12.25 -7.703,-9.453 -11.199,-18.9104 -11.199,-31.1526 l 0,-74.55862 -41.648,0 0,162.75822 36.051,0 1.742,-35.7 c 15.758,27.653 25.906,38.153 38.504,38.153 8.75,0 16.101,-3.864 22.746,-11.551 l -13.301,-40.609"
             style="fill:#ffffff;fill-opacity:1;fill-rule:nonzero;stroke:none"
             id="path3047"
             inkscape:connector-curvature="0" /><path
             d="m 1008.35,140.359 c -18.553,0 -31.155,-12.597 -34.651,-34.648 l 63.691,0 c -1.04,24.84 -9.45,34.648 -29.04,34.648 z M 1061.9,11.5508 C 1044.76,3.85156 1027.26,0 1008.35,0 c -48.299,0 -78.76,31.8516 -78.76,81.5508 0,51.4612 35,90.3082 81.55,90.3082 40.26,0 68.26,-30.461 68.26,-74.5504 l 0,-17.8594 -107.806,0 c 0.703,-13.6406 1.746,-19.25 5.601,-25.8984 6.993,-11.8906 20.996,-19.6016 36.405,-19.6016 6.29,0 12.6,0.6992 19.24,2.8008 9.81,2.8008 16.11,5.9492 31.15,15.3984 l 15.41,-31.8476 c -7.71,-4.1992 -13.65,-7 -17.5,-8.75"
             style="fill:#ffffff;fill-opacity:1;fill-rule:nonzero;stroke:none"
             id="path3049"
             inkscape:connector-curvature="0" /><path
             d="m 1186.49,77 -41.66,-13.6484 c -2.44,-6.3008 -3.14,-9.4532 -3.14,-13.6602 0,-10.4805 6.31,-16.793 16.8,-16.793 5.25,0 11.55,1.75 17.15,4.9024 2.81,1.4101 4.91,2.8008 10.85,7.3476 l 0,31.8516 z m 48.3,-74.55078 -8.75,0 c -20.99,0 -27.65,3.49219 -35,17.85158 -15.4,-14.01174 -29.05,-19.941425 -45.5,-19.941425 -27.64,0 -47.25,18.191425 -47.25,44.089825 0,5.5899 1.06,11.1992 2.79,16.4492 5.61,15.043 15.4,22.7618 39.2,29.75 l 46.21,13.3006 0,13.653 c 0,17.5 -6.29,25.546 -19.96,25.546 -12.59,0 -22.74,-6.636 -22.74,-14.687 0,-1.402 0.36,-2.109 1.04,-4.211 l -39.89,-8.75 c -1.75,4.91 -2.1,6.648 -2.1,11.211 0,28.711 25.2,45.148 69.3,45.148 38.87,0 56.37,-16.097 56.37,-51.808 l 0,-67.9026 c 0,-14.6992 1.73,-17.1367 12.94,-18.1992 l -6.66,-31.49998"
             style="fill:#ffffff;fill-opacity:1;fill-rule:nonzero;stroke:none"
             id="path3051"
             inkscape:connector-curvature="0" /><path
             d="m 1267.9,4.55078 41.6523,0 0,255.16 -41.6523,0 0,-255.16 z"
             style="fill:#ffffff;fill-opacity:1;fill-rule:nonzero;stroke:none"
             id="path3053"
             inkscape:connector-curvature="0" /><path
             d="m 1439.05,4.55078 41.6484,0 0,255.16 -41.6484,0 0,-255.16 z"
             style="fill:#ffffff;fill-opacity:1;fill-rule:nonzero;stroke:none"
             id="path3055"
             inkscape:connector-curvature="0" /><path
             d="m 1522.94,4.55078 0,162.75822 41.66,0 0,-162.75822 -41.66,0 z M 1543.95,197.41 c -12.95,0 -23.8,12.602 -23.8,28.352 0,15.75 10.85,28.359 23.8,28.359 12.93,0 23.44,-12.609 23.44,-28.359 0,-15.75 -10.51,-28.352 -23.44,-28.352"
             style="fill:#ffffff;fill-opacity:1;fill-rule:nonzero;stroke:none"
             id="path3057"
             inkscape:connector-curvature="0" /><path
             d="m 1722.2,219.461 c -14.36,7.687 -22.75,10.16 -33.6,10.16 -10.86,0 -18.55,-3.5 -23.81,-10.859 -6.28,-9.114 -8.04,-17.5 -8.04,-42 l 0,-9.453 34.29,0 0,-30.797 -34.29,0 0,-131.96122 -41.65,0 0,131.96122 -26.61,0 0,26.597 26.61,4.2 0,21 c 0,47.953 25.89,75.953 70.69,75.953 5.96,0 12.96,-0.703 19.96,-1.742 12.26,-2.098 18.91,-4.211 34.65,-11.559 l -18.2,-31.5"
             style="fill:#ffffff;fill-opacity:1;fill-rule:nonzero;stroke:none"
             id="path3059"
             inkscape:connector-curvature="0" /><path
             d="m 1773.99,140.359 c -18.55,0 -31.15,-12.597 -34.64,-34.648 l 63.7,0 c -1.06,24.84 -9.45,34.648 -29.06,34.648 z M 1827.55,11.5508 C 1810.4,3.85156 1792.9,0 1773.99,0 c -48.3,0 -78.75,31.8516 -78.75,81.5508 0,51.4612 35,90.3082 81.56,90.3082 40.24,0 68.25,-30.461 68.25,-74.5504 l 0,-17.8594 -107.81,0 c 0.7,-13.6406 1.75,-19.25 5.6,-25.8984 7.01,-11.8906 21.01,-19.6016 36.41,-19.6016 6.3,0 12.6,0.6992 19.24,2.8008 9.8,2.8008 16.11,5.9492 31.17,15.3984 l 15.39,-31.8476 c -7.7,-4.1992 -13.65,-7 -17.5,-8.75"
             style="fill:#ffffff;fill-opacity:1;fill-rule:nonzero;stroke:none"
             id="path3061"
             inkscape:connector-curvature="0" /><path
             d="m 496.84,881.309 c 16.574,20.472 35.055,19.062 48.414,8.25 l -45.188,-55.797 c -16.589,13.418 -20.843,25.789 -3.226,47.547 z m -58.602,47.461 c -21.984,-27.161 -1.363,-54.559 14.821,-71.579 -19.508,11.161 -49.606,18.047 -66.348,-2.64 -22.859,-28.231 -10.813,-56.531 23.016,-83.922 l 80.371,-65.078 126.828,156.648 -78.43,63.512 c -29.519,23.891 -74.266,35.16 -100.258,3.059 z m 6.032,-115.481 c 15.347,18.961 27.386,18.852 43.761,5.582 l -39.597,-48.902 c -16.594,13.429 -18.645,25.453 -4.164,43.32"
             style="fill:#ffffff;fill-opacity:1;fill-rule:nonzero;stroke:none"
             id="path3063"
             inkscape:connector-curvature="0" /><path
             d="m 464.82,990.391 -154.16,-129.84 -46.969,55.769 131.895,111.09 -43.395,51.52 22.266,18.75 90.363,-107.289"
             style="fill:#ffffff;fill-opacity:1;fill-rule:nonzero;stroke:none"
             id="path3065"
             inkscape:connector-curvature="0" /><path
             d="m 363.496,1113.59 -173.949,-101.8 -70.856,121.08 24.887,14.56 34.024,-58.15 46.894,27.44 -32.621,55.77 24.887,14.55 32.625,-55.75 52.16,30.53 -34.027,58.15 25.121,14.7 70.855,-121.08"
             style="fill:#ffffff;fill-opacity:1;fill-rule:nonzero;stroke:none"
             id="path3067"
             inkscape:connector-curvature="0" /><path
             d="m 247.41,1353.54 -39.777,-52.15 51.625,17.83 23.789,-68.92 -190.5158,-65.76 -23.7929,68.92 69.9727,24.15 -88.2422,28.78 -19.4493,56.35 108.2575,-47.68 80.996,117.11 27.137,-78.63"
             style="fill:#ffffff;fill-opacity:1;fill-rule:nonzero;stroke:none"
             id="path3069"
             inkscape:connector-curvature="0" /><path
             d="m 221.105,1449.54 -198.6988,-33.8 -12.2265,71.88 198.6913,33.81 12.234,-71.89"
             style="fill:#ffffff;fill-opacity:1;fill-rule:nonzero;stroke:none"
             id="path3071"
             inkscape:connector-curvature="0" /><path
             d="m 201.68,1675.09 -105.4691,-80.88 105.6291,0.21 0.101,-50.46 -201.546469,-0.41 -0.125,62.94 L 103.23,1687.37 0.101562,1687.15 0,1737.62 l 201.555,0.4 0.125,-62.93"
             style="fill:#ffffff;fill-opacity:1;fill-rule:nonzero;stroke:none"
             id="path3073"
             inkscape:connector-curvature="0" /><path
             d="m 233.059,1868.05 c -13.489,-56.92 -59.204,-106.77 -129.075,-90.21 -69.8668,16.55 -88.7262,78.85 -74.6051,138.47 8.6914,36.69 17.1367,55.49 29.2422,71.71 l 33.875,-14.58 -5.9492,-25.09 c -15.5899,-0.87 -27.8086,-7.94 -32.7266,-28.71 -7.4765,-31.57 23.3711,-57.68 67.6177,-68.16 43.968,-10.42 81.335,-3.03 89,29.34 1.281,5.4 1.988,13.21 1.988,13.21 l -70.406,16.68 16.808,70.95 81.199,-19.24 c 4.739,-18.5 3.125,-51.74 -6.968,-94.37"
             style="fill:#ffffff;fill-opacity:1;fill-rule:nonzero;stroke:none"
             id="path3075"
             inkscape:connector-curvature="0" /><path
             d="m 260.855,1977.44 -182.3238,85.91 59.7928,126.9 26.086,-12.29 -28.722,-60.95 49.16,-23.15 27.531,58.43 26.082,-12.29 -27.531,-58.44 54.675,-25.76 28.711,60.95 26.332,-12.41 -59.793,-126.9"
             style="fill:#ffffff;fill-opacity:1;fill-rule:nonzero;stroke:none"
             id="path3077"
             inkscape:connector-curvature="0" /><path
             d="m 344.449,2416.66 127.235,-116.8 -49.493,-53.92 -127.234,116.8 -35.996,-39.21 -21.246,19.49 121.484,132.35 21.239,-19.49 -35.989,-39.22"
             style="fill:#ffffff;fill-opacity:1;fill-rule:nonzero;stroke:none"
             id="path3079"
             inkscape:connector-curvature="0" /><path
             d="m 522.555,2349.84 -120.36,161.66 112.524,83.77 17.219,-23.13 -54.043,-40.23 32.453,-43.58 51.808,38.58 17.231,-23.14 -51.821,-38.56 36.086,-48.48 54.036,40.22 17.39,-23.34 -112.523,-83.77"
             style="fill:#ffffff;fill-opacity:1;fill-rule:nonzero;stroke:none"
             id="path3081"
             inkscape:connector-curvature="0" /><path
             d="m 748.254,2491.78 -56.25,33.74 23.445,-49.33 -65.847,-31.3 -86.52,182.04 65.856,31.3 31.777,-66.85 18.797,90.89 53.84,25.58 -35.372,-112.88 125.387,-67.49 -75.113,-35.7"
             style="fill:#ffffff;fill-opacity:1;fill-rule:nonzero;stroke:none"
             id="path3083"
             inkscape:connector-curvature="0" /><path
             d="m 964.719,2560.18 -101.582,85.7 22.808,-103.13 -49.265,-10.9 -43.535,196.79 61.445,13.6 101.047,-83.27 -22.27,100.69 49.262,10.91 43.531,-196.8 -61.441,-13.59"
             style="fill:#ffffff;fill-opacity:1;fill-rule:nonzero;stroke:none"
             id="path3085"
             inkscape:connector-curvature="0" /><path
             d="m 1048.34,2571.67 -10.4,201.28 72.81,3.76 10.41,-201.28 -72.82,-3.76"
             style="fill:#ffffff;fill-opacity:1;fill-rule:nonzero;stroke:none"
             id="path3087"
             inkscape:connector-curvature="0" /><path
             d="m 1210.81,2567.83 c -26.21,2.49 -54.51,12.42 -67.73,19.8 l 11.5,42.08 21.25,-2.02 c -0.33,-18.35 16.17,-32.17 34.67,-33.92 16.82,-1.6 30.9,2.91 32.31,17.82 2.76,28.98 -90.53,43.68 -84.35,108.81 3.64,38.36 43.7,58.51 86.21,54.48 22.62,-2.15 51.61,-10.75 68.11,-21.78 l -11.91,-34.51 -17.94,1.7 c -0.77,15.39 -11.82,28.13 -28.93,29.76 -14.62,1.38 -30.6,-2.67 -32.04,-17.85 -2.58,-27.05 93.58,-38.12 87.23,-104.91 -4.02,-42.5 -44,-64.61 -98.38,-59.46"
             style="fill:#ffffff;fill-opacity:1;fill-rule:nonzero;stroke:none"
             id="path3089"
             inkscape:connector-curvature="0" /><path
             d="m 1425.46,2528.34 -18.48,62.93 -16.19,-52.15 -69.64,21.63 59.82,192.47 69.63,-21.63 -21.98,-70.69 75.45,54.07 56.93,-17.68 -102.53,-59.02 46.42,-134.61 -79.43,24.68"
             style="fill:#ffffff;fill-opacity:1;fill-rule:nonzero;stroke:none"
             id="path3091"
             inkscape:connector-curvature="0" /><path
             d="m 1701.63,2389.8 37.02,212.29 -57.26,33.88 -168.01,-134.77 43.65,-25.84 47.64,40.75 44.86,-26.54 -12.8,-61.37 64.9,-38.4 z m -47.04,127.38 -28.63,16.94 40.15,35.19 -11.52,-52.13"
             style="fill:#ffffff;fill-opacity:1;fill-rule:nonzero;stroke:none"
             id="path3093"
             inkscape:connector-curvature="0" /><path
             d="m 1873.53,2210.23 69.34,56.68 -35.98,44 -69.33,-56.67 -46.13,56.46 156.05,127.55 46.13,-56.46 -64.39,-52.63 35.98,-44.01 64.39,52.64 46.14,-56.46 -156.06,-127.55 -46.14,56.45"
             style="fill:#ffffff;fill-opacity:1;fill-rule:nonzero;stroke:none"
             id="path3095"
             inkscape:connector-curvature="0" /><path
             d="m 2121.91,1966.8 c 65.2,30.09 75.48,85.84 44.69,152.54 -30.68,66.45 -79.91,95.03 -145.11,64.93 -65.18,-30.1 -71.3,-95.54 -44.93,-152.67 30.91,-66.95 80.16,-94.9 145.35,-64.8 z m 71.08,179.38 c 9.57,4.42 13.76,15.83 9.34,25.39 -4.53,9.82 -15.82,13.76 -25.39,9.35 -9.56,-4.42 -13.87,-15.57 -9.34,-25.39 4.41,-9.56 15.82,-13.76 25.39,-9.35 z m 25.79,-55.88 c 9.57,4.42 13.9,15.58 9.35,25.39 -4.42,9.56 -15.82,13.77 -25.39,9.35 -9.56,-4.42 -13.77,-15.82 -9.34,-25.39 4.53,-9.81 15.81,-13.76 25.38,-9.35 z m -128.59,-54.79 c -45.81,-21.15 -78.07,-21.39 -90.98,6.55 -12.55,27.19 8.21,52.34 54.01,73.49 49.85,23.01 79.93,21.33 92.48,-5.85 12.56,-27.19 -5.68,-51.18 -55.51,-74.19"
             style="fill:#ffffff;fill-opacity:1;fill-rule:nonzero;stroke:none"
             id="path3097"
             inkscape:connector-curvature="0" /><path
             d="m 2049.12,1796.05 c -10.23,57.59 11.9,121.5 82.6,134.08 70.68,12.57 112.75,-37.11 123.49,-97.43 6.6,-37.12 6.31,-57.72 1.65,-77.42 l -36.87,-0.08 -4.52,25.38 c 13.96,6.99 22.37,18.34 18.62,39.36 -5.67,31.93 -44.36,43.63 -89.13,35.67 -44.48,-7.91 -75.83,-29.54 -70.01,-62.29 0.97,-5.46 3.42,-12.9 3.42,-12.9 l 71.24,12.66 12.77,-71.79 -82.15,-14.6 c -11.7,15.09 -23.43,46.23 -31.11,89.36"
             style="fill:#ffffff;fill-opacity:1;fill-rule:nonzero;stroke:none"
             id="path3099"
             inkscape:connector-curvature="0" /><path
             d="m 2061.39,1618.22 c 1.01,26.32 9.32,55.13 15.95,68.74 l 42.66,-9.13 -0.82,-21.34 c -18.34,-0.67 -31.21,-17.93 -31.93,-36.48 -0.65,-16.91 4.64,-30.71 19.61,-31.29 29.08,-1.12 38.53,92.85 103.91,90.33 38.51,-1.49 60.87,-40.35 59.23,-83.01 -0.88,-22.71 -7.83,-52.14 -17.93,-69.23 l -35.13,9.95 0.7,18.01 c 15.32,1.63 27.42,13.38 28.08,30.55 0.57,14.69 -4.37,30.41 -19.61,30.99 -27.15,1.06 -32.81,-95.56 -99.86,-92.97 -42.66,1.64 -66.96,40.31 -64.86,94.88"
             style="fill:#ffffff;fill-opacity:1;fill-rule:nonzero;stroke:none"
             id="path3101"
             inkscape:connector-curvature="0" /><path
             d="m 2034.1,1401.61 61.78,22.03 -52.99,13.2 17.64,70.75 195.55,-48.75 -17.62,-70.75 -71.84,17.91 58.28,-72.24 -14.4,-57.84 -64.76,99 -131.76,-54.02 20.12,80.71"
             style="fill:#ffffff;fill-opacity:1;fill-rule:nonzero;stroke:none"
             id="path3103"
             inkscape:connector-curvature="0" /><path
             d="m 2001.73,1070.53 c 64.06,-32.41 114.15,-5.87 147.31,59.69 33.05,65.31 24.89,121.64 -39.2,154.04 -64.06,32.43 -119.16,-3.39 -147.56,-59.56 -33.3,-65.8 -24.63,-121.75 39.45,-154.17 z m 34.17,67.54 c -45.04,22.78 -65.26,47.91 -51.36,75.37 13.52,26.72 46.12,26.08 91.14,3.29 48.99,-24.77 66.35,-49.4 52.84,-76.12 -13.52,-26.72 -43.66,-27.32 -92.62,-2.54"
             style="fill:#ffffff;fill-opacity:1;fill-rule:nonzero;stroke:none"
             id="path3105"
             inkscape:connector-curvature="0" /><path
             d="m 1897.96,1105.28 155.8,-127.858 -46.26,-56.363 -133.3,109.401 -42.74,-52.081 -22.5,18.461 89,108.44"
             style="fill:#ffffff;fill-opacity:1;fill-rule:nonzero;stroke:none"
             id="path3107"
             inkscape:connector-curvature="0" /><path
             d="m 1632.22,847.961 185.76,-109.223 51.83,41.723 -67.17,204.641 -39.53,-31.813 21.42,-58.91 -40.6,-32.668 -52.95,33.527 -58.76,-47.277 z m 135.79,-0.691 25.92,20.859 18.84,-49.957 -44.76,29.098"
             style="fill:#ffffff;fill-opacity:1;fill-rule:nonzero;stroke:none"
             id="path3109"
             inkscape:connector-curvature="0" /><path
             d="m 929.109,589.09 c -4.773,-25.899 -21.675,-33.5 -38.582,-30.371 l 13.028,70.601 c 20.988,-3.879 30.633,-12.691 25.554,-40.23 z m 74.161,-13.692 c 6.33,34.352 -24.872,48.571 -47.223,55.801 22.469,-0.488 52.193,7.852 57.033,34.02 6.58,35.703 -17.521,54.82 -60.326,62.722 l -101.692,18.75 -36.558,-198.211 99.234,-18.3 c 37.348,-6.891 82.032,4.609 89.532,45.218 z m -60.465,98.551 c -4.438,-23.98 -15.063,-29.648 -35.785,-25.82 l 11.418,61.902 c 20.996,-3.871 28.527,-13.441 24.367,-36.082"
             style="fill:#ffffff;fill-opacity:1;fill-rule:nonzero;stroke:none"
             id="path3111"
             inkscape:connector-curvature="0" /><path
             d="m 1168.99,682.859 -1.66,-172.718 -73.18,0.711 1.66,172.707 -53.23,0.511 0.28,28.828 179.64,-1.718 -0.28,-28.809 -53.23,0.488"
             style="fill:#ffffff;fill-opacity:1;fill-rule:nonzero;stroke:none"
             id="path3113"
             inkscape:connector-curvature="0" /><path
             d="m 1405.06,540.121 -18.36,87.641 -55.62,-11.641 18.35,-87.641 -71.35,-14.941 -41.33,197.27 71.37,14.929 17.05,-81.398 55.62,11.66 -17.05,81.391 71.36,14.961 41.33,-197.27 -71.37,-14.961"
             style="fill:#ffffff;fill-opacity:1;fill-rule:nonzero;stroke:none"
             id="path3115"
             inkscape:connector-curvature="0" /><path
             d="m 684.617,675.922 c 21.195,0 38.363,17.168 38.363,38.359 0,21.18 -17.168,38.348 -38.363,38.348 -21.172,0 -38.347,-17.168 -38.347,-38.348 0,-21.191 17.175,-38.359 38.347,-38.359"
             style="fill:#ffffff;fill-opacity:1;fill-rule:nonzero;stroke:none"
             id="path3117"
             inkscape:connector-curvature="0" /><path
             d="m 1595.95,674.93 c 21.18,0 38.35,17.172 38.35,38.34 0,21.191 -17.17,38.359 -38.35,38.359 -21.18,0 -38.36,-17.168 -38.36,-38.359 0,-21.168 17.18,-38.34 38.36,-38.34"
             style="fill:#ffffff;fill-opacity:1;fill-rule:nonzero;stroke:none"
             id="path3119"
             inkscape:connector-curvature="0" /><path
             d="m 340.297,1684.84 82.324,-0.21 c 0,0 7.801,0.64 15.047,-2.86 7.242,-3.48 17.609,-10.34 20.609,-12.74 2.985,-2.41 15.43,-14.92 18.422,-22.4 3.004,-7.5 1.879,-14.14 1.879,-14.14 l 0,-72.34 -87.726,0.01 c 0,0 -9.508,0.59 -12.274,1.63 -2.773,1.04 -12.008,4.15 -19.793,11.05 0,0 -11.668,13.2 -13.172,18.59 0,0 -5.418,11.68 -5.316,13.18 0.098,1.49 0,80.23 0,80.23"
             style="fill:#ffffff;fill-opacity:1;fill-rule:nonzero;stroke:none"
             id="path3121"
             inkscape:connector-curvature="0" /><path
             d="m 829.316,1535.44 82.325,-0.2 c 0,0 7.8,0.64 15.031,-2.87 7.266,-3.5 17.637,-10.33 20.625,-12.74 2.976,-2.41 15.43,-14.92 18.426,-22.4 3,-7.5 1.867,-14.14 1.867,-14.14 l 0,-72.34 -87.727,0.02 c 0,0 -9.504,0.59 -12.273,1.62 -2.766,1.04 -12.004,4.16 -19.785,11.04 0,0 -11.684,13.22 -13.176,18.61 0,0 -5.418,11.68 -5.313,13.18 0.086,1.49 0,80.22 0,80.22"
             style="fill:#ffffff;fill-opacity:1;fill-rule:nonzero;stroke:none"
             id="path3123"
             inkscape:connector-curvature="0" /><path
             d="m 1454.75,1536.11 -82.33,-0.21 c -0.01,0 -7.79,0.65 -15.05,-2.85 -7.24,-3.5 -17.61,-10.35 -20.6,-12.75 -2.99,-2.41 -15.45,-14.91 -18.44,-22.41 -3,-7.49 -1.87,-14.13 -1.87,-14.13 l 0,-72.34 87.73,0.01 c 0,0 9.51,0.59 12.27,1.63 2.77,1.04 12.01,4.15 19.8,11.05 0,0 11.66,13.2 13.16,18.59 0,0 5.42,11.68 5.33,13.18 -0.11,1.51 0,80.23 0,80.23"
             style="fill:#ffffff;fill-opacity:1;fill-rule:nonzero;stroke:none"
             id="path3125"
             inkscape:connector-curvature="0" /><path
             d="m 992.156,1535.53 82.324,-0.19 c 0,0 7.8,0.62 15.04,-2.86 7.25,-3.51 17.62,-10.35 20.61,-12.77 2.99,-2.4 15.44,-14.9 18.43,-22.4 2.99,-7.49 1.86,-14.14 1.86,-14.14 l 0,-72.32 -87.71,0.01 c 0,0 -9.51,0.59 -12.29,1.63 -2.75,1.03 -11.99,4.15 -19.79,11.04 0,0 -11.653,13.2 -13.157,18.6 0,0 -5.422,11.67 -5.317,13.17 0.102,1.5 0,80.23 0,80.23"
             style="fill:#ffffff;fill-opacity:1;fill-rule:nonzero;stroke:none"
             id="path3127"
             inkscape:connector-curvature="0" /><path
             d="m 1292.43,1535.53 -82.32,-0.19 c 0,0 -7.8,0.62 -15.04,-2.86 -7.25,-3.51 -17.62,-10.35 -20.62,-12.77 -2.98,-2.4 -15.43,-14.9 -18.42,-22.4 -3,-7.49 -1.88,-14.14 -1.88,-14.14 l 0,-72.32 87.73,0.01 c 0,0 9.51,0.59 12.27,1.63 2.77,1.03 11.99,4.15 19.81,11.04 0,0 11.65,13.2 13.15,18.6 0,0 5.42,11.67 5.32,13.17 -0.1,1.5 0,80.23 0,80.23"
             style="fill:#ffffff;fill-opacity:1;fill-rule:nonzero;stroke:none"
             id="path3129"
             inkscape:connector-curvature="0" /><path
             d="m 503.102,1535.27 82.32,-0.21 c 0,0 7.793,0.64 15.039,-2.85 7.242,-3.51 17.613,-10.35 20.613,-12.76 2.981,-2.41 15.442,-14.91 18.43,-22.4 2.996,-7.49 1.863,-14.13 1.863,-14.13 l 0,-72.35 -87.719,0.02 c 0,0 -9.507,0.59 -12.281,1.62 -2.758,1.05 -11.996,4.16 -19.785,11.06 0,0 -11.672,13.2 -13.168,18.59 0,0 -5.422,11.68 -5.312,13.18 0.097,1.49 0,80.23 0,80.23"
             style="fill:#ffffff;fill-opacity:1;fill-rule:nonzero;stroke:none"
             id="path3131"
             inkscape:connector-curvature="0" /><path
             d="m 665.93,1535.36 82.332,-0.21 c 0,0 7.785,0.65 15.039,-2.86 7.234,-3.5 17.629,-10.33 20.605,-12.75 2.996,-2.41 15.442,-14.91 18.43,-22.41 3.008,-7.49 1.875,-14.13 1.875,-14.13 l 0,-72.33 -87.727,0 c 0,0 -9.504,0.6 -12.273,1.64 -2.766,1.03 -11.992,4.14 -19.797,11.04 0,0 -11.672,13.22 -13.152,18.6 0,0 -5.434,11.67 -5.332,13.17 0.105,1.51 0,80.24 0,80.24"
             style="fill:#ffffff;fill-opacity:1;fill-rule:nonzero;stroke:none"
             id="path3133"
             inkscape:connector-curvature="0" /><path
             d="m 1780.56,1536.27 -82.33,-0.22 c 0,0 -7.8,0.66 -15.05,-2.84 -7.24,-3.52 -17.6,-10.35 -20.6,-12.75 -2.99,-2.42 -15.43,-14.93 -18.44,-22.42 -2.99,-7.49 -1.85,-14.13 -1.85,-14.13 l 0,-72.32 87.71,0 c 0,0 9.51,0.59 12.28,1.63 2.76,1.04 12,4.15 19.79,11.04 0,0 11.66,13.21 13.16,18.6 0,0 5.42,11.68 5.33,13.18 -0.1,1.49 0,80.23 0,80.23"
             style="fill:#ffffff;fill-opacity:1;fill-rule:nonzero;stroke:none"
             id="path3135"
             inkscape:connector-curvature="0" /><path
             d="m 1618.24,1535.69 -82.32,-0.22 c 0,0 -7.79,0.65 -15.04,-2.85 -7.25,-3.49 -17.62,-10.34 -20.62,-12.75 -2.98,-2.4 -15.43,-14.9 -18.42,-22.4 -3.01,-7.48 -1.88,-14.14 -1.88,-14.14 l 0,-72.34 87.73,0.01 c 0,0 9.52,0.61 12.27,1.64 2.77,1.04 12.01,4.16 19.79,11.04 0,0 11.68,13.21 13.18,18.6 0,0 5.41,11.69 5.31,13.18 -0.11,1.5 0,80.23 0,80.23"
             style="fill:#ffffff;fill-opacity:1;fill-rule:nonzero;stroke:none"
             id="path3137"
             inkscape:connector-curvature="0" /><path
             d="m 339.734,1536.31 82.321,-0.2 c 0,-0.01 7.804,0.63 15.039,-2.86 7.258,-3.5 17.625,-10.35 20.609,-12.76 2.988,-2.4 15.442,-14.9 18.442,-22.4 2.992,-7.49 1.859,-14.14 1.859,-14.14 l 0,-72.32 -87.723,0 c 0,0 -9.504,0.6 -12.261,1.64 -2.778,1.03 -12.012,4.14 -19.801,11.04 0,0 -11.664,13.2 -13.168,18.61 0,0 -5.422,11.66 -5.317,13.16 0.102,1.49 0,80.23 0,80.23"
             style="fill:#ffffff;fill-opacity:1;fill-rule:nonzero;stroke:none"
             id="path3139"
             inkscape:connector-curvature="0" /><path
             d="m 1942.41,1536.71 -82.32,-0.2 c 0,0 -7.8,0.64 -15.04,-2.86 -7.25,-3.51 -17.63,-10.34 -20.61,-12.75 -2.99,-2.42 -15.44,-14.92 -18.42,-22.42 -3.01,-7.49 -1.88,-14.12 -1.88,-14.12 l 0,-72.34 87.72,0.01 c 0,0 9.51,0.59 12.28,1.63 2.76,1.03 11.99,4.16 19.79,11.04 0,0 11.67,13.21 13.17,18.61 0,0 5.42,11.67 5.31,13.17 -0.11,1.49 0,80.23 0,80.23"
             style="fill:#ffffff;fill-opacity:1;fill-rule:nonzero;stroke:none"
             id="path3141"
             inkscape:connector-curvature="0" /><path
             d="m 1141.12,1392.96 -157.741,0 0,-190.42 c 0,0 -0.469,-39.89 -32.449,-39.89 -31.965,0 -356.008,0.33 -356.008,0.33 l 0.051,-71.88 1101.677,0 0.37,72.69 c 0,0 -332.72,0.12 -365.07,0.12 -31.96,0 -31.52,38.63 -31.52,38.63 l 0,190.42 -159.31,0"
             style="fill:#ffffff;fill-opacity:1;fill-rule:nonzero;stroke:none"
             id="path3143"
             inkscape:connector-curvature="0" /><path
             d="m 828.887,1385.42 82.324,-0.2 c 0,0 7.805,0.64 15.051,-2.87 7.246,-3.5 17.605,-10.33 20.601,-12.73 2.992,-2.42 15.434,-14.93 18.418,-22.42 3.012,-7.49 1.875,-14.14 1.875,-14.14 l 0,-72.33 -87.715,0 c 0,0 -9.507,0.6 -12.285,1.64 -2.761,1.04 -11.988,4.16 -19.785,11.04 0,0 -11.68,13.22 -13.16,18.61 0,0 -5.434,11.68 -5.324,13.17 0.097,1.5 0,80.23 0,80.23"
             style="fill:#ffffff;fill-opacity:1;fill-rule:nonzero;stroke:none"
             id="path3145"
             inkscape:connector-curvature="0" /><path
             d="m 502.676,1385.24 82.312,-0.2 c 0,0 7.817,0.63 15.039,-2.85 7.27,-3.5 17.629,-10.35 20.61,-12.76 2.984,-2.41 15.449,-14.91 18.433,-22.41 3.008,-7.48 1.875,-14.13 1.875,-14.13 l 0,-72.34 -87.726,0.02 c 0,0 -9.504,0.59 -12.278,1.62 -2.761,1.04 -11.996,4.16 -19.785,11.06 0,0 -11.676,13.19 -13.168,18.59 0,0 -5.422,11.68 -5.312,13.17 0.094,1.51 0,80.23 0,80.23"
             style="fill:#ffffff;fill-opacity:1;fill-rule:nonzero;stroke:none"
             id="path3147"
             inkscape:connector-curvature="0" /><path
             d="m 665.508,1385.34 82.312,-0.22 c 0,0 7.805,0.65 15.063,-2.85 7.246,-3.49 17.613,-10.33 20.594,-12.75 3,-2.4 15.441,-14.9 18.437,-22.4 2.996,-7.5 1.863,-14.15 1.863,-14.15 l 0,-72.32 -87.715,0 c 0,0 -9.507,0.6 -12.285,1.63 -2.754,1.05 -11.992,4.15 -19.785,11.05 0,0 -11.668,13.21 -13.164,18.6 0,0 -5.43,11.67 -5.32,13.17 0.105,1.51 0,80.24 0,80.24"
             style="fill:#ffffff;fill-opacity:1;fill-rule:nonzero;stroke:none"
             id="path3149"
             inkscape:connector-curvature="0" /><path
             d="m 1455.26,1385.87 -82.33,-0.21 c 0,0 -7.79,0.65 -15.05,-2.86 -7.24,-3.5 -17.62,-10.34 -20.59,-12.76 -3,-2.4 -15.44,-14.9 -18.44,-22.4 -3,-7.5 -1.87,-14.12 -1.87,-14.12 l 0,-72.34 87.72,0.01 c 0,0 9.52,0.59 12.28,1.63 2.76,1.03 11.99,4.15 19.79,11.05 0,0 11.67,13.2 13.16,18.6 0,0 5.42,11.67 5.33,13.16 -0.1,1.5 0,80.24 0,80.24"
             style="fill:#ffffff;fill-opacity:1;fill-rule:nonzero;stroke:none"
             id="path3151"
             inkscape:connector-curvature="0" /><path
             d="m 1781.07,1386.02 -82.32,-0.21 c 0,0 -7.81,0.64 -15.06,-2.85 -7.23,-3.5 -17.6,-10.35 -20.59,-12.76 -2.99,-2.4 -15.43,-14.91 -18.44,-22.4 -3,-7.48 -1.87,-14.14 -1.87,-14.14 l 0,-72.33 87.73,0 c 0,0 9.5,0.61 12.27,1.64 2.77,1.04 12,4.16 19.79,11.06 0,0 11.68,13.19 13.16,18.58 0,0 5.43,11.68 5.33,13.18 -0.1,1.5 0,80.23 0,80.23"
             style="fill:#ffffff;fill-opacity:1;fill-rule:nonzero;stroke:none"
             id="path3153"
             inkscape:connector-curvature="0" /><path
             d="m 1618.75,1385.45 -82.32,-0.21 c 0,0 -7.81,0.64 -15.04,-2.86 -7.26,-3.5 -17.62,-10.34 -20.61,-12.75 -2.99,-2.4 -15.43,-14.92 -18.44,-22.4 -2.99,-7.5 -1.86,-14.14 -1.86,-14.14 l 0,-72.33 87.72,0 c 0,0 9.51,0.6 12.27,1.64 2.77,1.03 12,4.15 19.79,11.04 0,0 11.67,13.21 13.18,18.6 0,0 5.41,11.68 5.31,13.18 -0.1,1.49 0,80.23 0,80.23"
             style="fill:#ffffff;fill-opacity:1;fill-rule:nonzero;stroke:none"
             id="path3155"
             inkscape:connector-curvature="0" /><path
             d="m 829.695,1683.74 82.325,-0.2 c 0,0 7.792,0.65 15.042,-2.85 7.247,-3.51 17.618,-10.35 20.606,-12.75 2.984,-2.41 15.437,-14.93 18.437,-22.42 2.997,-7.49 1.875,-14.13 1.875,-14.13 l 0,-72.34 -87.738,0.02 c 0,0 -9.5,0.58 -12.262,1.62 -2.777,1.04 -12.011,4.16 -19.796,11.05 0,0 -11.668,13.21 -13.172,18.6 0,0 -5.41,11.68 -5.317,13.17 0.102,1.51 0,80.23 0,80.23"
             style="fill:#ffffff;fill-opacity:1;fill-rule:nonzero;stroke:none"
             id="path3157"
             inkscape:connector-curvature="0" /><path
             d="m 1455.13,1684.42 -82.33,-0.21 c 0,0 -7.79,0.64 -15.04,-2.86 -7.24,-3.49 -17.61,-10.35 -20.6,-12.75 -3,-2.41 -15.43,-14.92 -18.44,-22.4 -2.99,-7.5 -1.87,-14.14 -1.87,-14.14 l 0,-72.33 87.73,0 c 0,0 9.51,0.61 12.27,1.64 2.77,1.04 12,4.15 19.8,11.04 0,0 11.66,13.2 13.15,18.59 0,0 5.41,11.68 5.33,13.19 -0.1,1.48 0,80.23 0,80.23"
             style="fill:#ffffff;fill-opacity:1;fill-rule:nonzero;stroke:none"
             id="path3159"
             inkscape:connector-curvature="0" /><path
             d="m 992.539,1683.82 82.321,-0.19 c 0,0 7.81,0.63 15.05,-2.86 7.25,-3.5 17.61,-10.34 20.59,-12.76 3.01,-2.4 15.45,-14.9 18.44,-22.4 3,-7.49 1.87,-14.13 1.87,-14.13 l 0,-72.34 -87.71,0.01 c 0,0 -9.52,0.6 -12.29,1.64 -2.76,1.03 -11.99,4.16 -19.78,11.03 0,0 -11.682,13.22 -13.178,18.6 0,0 -5.418,11.7 -5.313,13.18 0.098,1.5 0,80.22 0,80.22"
             style="fill:#ffffff;fill-opacity:1;fill-rule:nonzero;stroke:none"
             id="path3161"
             inkscape:connector-curvature="0" /><path
             d="m 1292.8,1683.82 -82.31,-0.19 c 0,0 -7.8,0.63 -15.04,-2.86 -7.26,-3.5 -17.63,-10.34 -20.62,-12.76 -2.98,-2.4 -15.43,-14.9 -18.43,-22.4 -2.99,-7.49 -1.86,-14.13 -1.86,-14.13 l 0,-72.34 87.73,0.01 c 0,0 9.5,0.6 12.25,1.64 2.77,1.03 12.01,4.16 19.81,11.03 0,0 11.66,13.22 13.16,18.6 0,0 5.43,11.7 5.31,13.18 -0.09,1.5 0,80.22 0,80.22"
             style="fill:#ffffff;fill-opacity:1;fill-rule:nonzero;stroke:none"
             id="path3163"
             inkscape:connector-curvature="0" /><path
             d="m 503.484,1683.57 82.328,-0.2 c 0,0 7.793,0.64 15.04,-2.88 7.246,-3.48 17.617,-10.33 20.601,-12.73 2.988,-2.41 15.434,-14.92 18.442,-22.41 2.988,-7.49 1.851,-14.13 1.851,-14.13 l 0,-72.34 -87.719,0 c 0,0 -9.507,0.61 -12.265,1.64 -2.774,1.04 -12.004,4.15 -19.797,11.05 0,0 -11.66,13.2 -13.172,18.59 0,0 -5.414,11.68 -5.309,13.19 0.094,1.48 0,80.22 0,80.22"
             style="fill:#ffffff;fill-opacity:1;fill-rule:nonzero;stroke:none"
             id="path3165"
             inkscape:connector-curvature="0" /><path
             d="m 666.316,1683.66 82.329,-0.2 c 0,0 7.8,0.63 15.039,-2.87 7.254,-3.49 17.625,-10.34 20.601,-12.75 2.988,-2.4 15.449,-14.9 18.442,-22.4 2.996,-7.49 1.875,-14.13 1.875,-14.13 l 0,-72.34 -87.739,0.01 c 0,0 -9.492,0.6 -12.261,1.63 -2.778,1.04 -12.012,4.15 -19.79,11.05 0,0 -11.675,13.19 -13.179,18.6 0,0 -5.41,11.67 -5.317,13.16 0.102,1.51 0,80.24 0,80.24"
             style="fill:#ffffff;fill-opacity:1;fill-rule:nonzero;stroke:none"
             id="path3167"
             inkscape:connector-curvature="0" /><path
             d="m 1780.94,1684.56 -82.33,-0.2 c 0,0 -7.79,0.65 -15.04,-2.85 -7.24,-3.51 -17.61,-10.35 -20.6,-12.75 -3,-2.41 -15.44,-14.91 -18.44,-22.41 -2.99,-7.5 -1.87,-14.14 -1.87,-14.14 l 0,-72.34 87.73,0.02 c 0,0 9.51,0.58 12.27,1.62 2.76,1.03 12.01,4.16 19.8,11.05 0,0 11.66,13.21 13.16,18.6 0,0 5.42,11.68 5.32,13.18 -0.1,1.5 0,80.22 0,80.22"
             style="fill:#ffffff;fill-opacity:1;fill-rule:nonzero;stroke:none"
             id="path3169"
             inkscape:connector-curvature="0" /><path
             d="m 1618.63,1683.99 -82.34,-0.2 c 0,0 -7.79,0.63 -15.04,-2.87 -7.25,-3.49 -17.62,-10.34 -20.6,-12.74 -2.97,-2.4 -15.44,-14.91 -18.42,-22.41 -3.01,-7.5 -1.88,-14.13 -1.88,-14.13 l 0,-72.34 87.73,0 c 0,0 9.5,0.61 12.28,1.63 2.75,1.05 11.98,4.16 19.78,11.06 0,0 11.67,13.2 13.17,18.6 0,0 5.41,11.66 5.32,13.17 -0.09,1.5 0,80.23 0,80.23"
             style="fill:#ffffff;fill-opacity:1;fill-rule:nonzero;stroke:none"
             id="path3171"
             inkscape:connector-curvature="0" /><path
             d="m 1942.79,1685.01 -82.32,-0.2 c 0,0 -7.79,0.65 -15.04,-2.85 -7.25,-3.51 -17.62,-10.35 -20.61,-12.76 -2.98,-2.42 -15.44,-14.91 -18.42,-22.42 -3.01,-7.48 -1.88,-14.12 -1.88,-14.12 l 0,-72.34 87.73,0.02 c 0,0 9.51,0.58 12.27,1.62 2.77,1.03 12,4.16 19.78,11.05 0,0 11.68,13.21 13.18,18.6 0,0 5.41,11.68 5.31,13.16 -0.09,1.51 0,80.24 0,80.24"
             style="fill:#ffffff;fill-opacity:1;fill-rule:nonzero;stroke:none"
             id="path3173"
             inkscape:connector-curvature="0" /><path
             d="m 829.973,1832.61 82.324,-0.2 c 0,0 7.801,0.64 15.039,-2.86 7.254,-3.5 17.625,-10.34 20.625,-12.75 2.969,-2.4 15.43,-14.91 18.418,-22.39 2.996,-7.51 1.875,-14.15 1.875,-14.15 l 0,-72.33 -87.734,0.01 c 0,0 -9.497,0.58 -12.266,1.64 -2.774,1.01 -12.016,4.14 -19.785,11.03 0,0 -11.684,13.21 -13.188,18.6 0,0 -5.41,11.67 -5.308,13.18 0.093,1.5 0,80.22 0,80.22"
             style="fill:#ffffff;fill-opacity:1;fill-rule:nonzero;stroke:none"
             id="path3175"
             inkscape:connector-curvature="0" /><path
             d="m 1455.41,1833.28 -82.33,-0.19 c 0,0 -7.8,0.62 -15.05,-2.86 -7.24,-3.5 -17.61,-10.35 -20.6,-12.76 -2.99,-2.41 -15.43,-14.91 -18.44,-22.41 -2.98,-7.49 -1.86,-14.13 -1.86,-14.13 l 0,-72.33 87.72,0 c 0,0 9.51,0.61 12.28,1.64 2.76,1.04 11.99,4.15 19.79,11.05 0,0 11.66,13.19 13.16,18.6 0,0 5.43,11.66 5.33,13.16 -0.11,1.51 0,80.23 0,80.23"
             style="fill:#ffffff;fill-opacity:1;fill-rule:nonzero;stroke:none"
             id="path3177"
             inkscape:connector-curvature="0" /><path
             d="m 992.82,1832.71 82.33,-0.21 c 0,0 7.79,0.64 15.04,-2.85 7.24,-3.5 17.61,-10.35 20.59,-12.76 3,-2.41 15.44,-14.91 18.43,-22.41 3.01,-7.48 1.87,-14.13 1.87,-14.13 l 0,-72.33 -87.71,0.01 c 0,0 -9.51,0.59 -12.29,1.63 -2.75,1.03 -11.99,4.15 -19.78,11.05 0,0 -11.671,13.2 -13.163,18.59 0,0 -5.434,11.68 -5.317,13.18 0.102,1.49 0,80.23 0,80.23"
             style="fill:#ffffff;fill-opacity:1;fill-rule:nonzero;stroke:none"
             id="path3179"
             inkscape:connector-curvature="0" /><path
             d="m 1293.1,1832.71 -82.33,-0.21 c 0,0 -7.81,0.64 -15.06,-2.85 -7.24,-3.5 -17.6,-10.35 -20.59,-12.76 -2.99,-2.41 -15.44,-14.91 -18.44,-22.41 -3,-7.48 -1.88,-14.13 -1.88,-14.13 l 0,-72.33 87.74,0.01 c 0,0 9.5,0.59 12.27,1.63 2.76,1.03 12,4.15 19.79,11.05 0,0 11.66,13.2 13.17,18.59 0,0 5.41,11.68 5.33,13.18 -0.11,1.5 0,80.23 0,80.23"
             style="fill:#ffffff;fill-opacity:1;fill-rule:nonzero;stroke:none"
             id="path3181"
             inkscape:connector-curvature="0" /><path
             d="m 503.762,1832.44 82.324,-0.21 c 0,0 7.793,0.65 15.035,-2.85 7.246,-3.49 17.617,-10.34 20.609,-12.75 2.989,-2.41 15.438,-14.92 18.426,-22.41 3.008,-7.49 1.864,-14.13 1.864,-14.13 l 0,-72.33 -87.708,0 c 0,0 -9.507,0.61 -12.269,1.64 -2.773,1.04 -12.016,4.14 -19.801,11.04 0,0 -11.672,13.2 -13.172,18.59 0,0 -5.414,11.68 -5.308,13.18 0.093,1.5 0,80.23 0,80.23"
             style="fill:#ffffff;fill-opacity:1;fill-rule:nonzero;stroke:none"
             id="path3183"
             inkscape:connector-curvature="0" /><path
             d="m 666.594,1832.52 82.332,-0.2 c 0,0 7.785,0.65 15.039,-2.85 7.234,-3.5 17.617,-10.35 20.597,-12.74 2.997,-2.42 15.45,-14.93 18.434,-22.42 3.012,-7.49 1.875,-14.13 1.875,-14.13 l 0,-72.34 -87.723,0.01 c 0,0 -9.519,0.59 -12.277,1.63 -2.762,1.03 -12,4.15 -19.805,11.05 0,0 -11.66,13.2 -13.152,18.6 0,0 -5.422,11.68 -5.32,13.18 0.094,1.48 0,80.21 0,80.21"
             style="fill:#ffffff;fill-opacity:1;fill-rule:nonzero;stroke:none"
             id="path3185"
             inkscape:connector-curvature="0" /><path
             d="m 1781.21,1833.43 -82.31,-0.2 c 0,0 -7.8,0.65 -15.05,-2.86 -7.25,-3.5 -17.62,-10.33 -20.61,-12.74 -2.99,-2.41 -15.43,-14.92 -18.44,-22.41 -2.98,-7.49 -1.87,-14.14 -1.87,-14.14 l 0,-72.33 87.73,0.01 c 0,0 9.52,0.6 12.29,1.64 2.75,1.03 11.99,4.15 19.78,11.03 0,0 11.66,13.21 13.17,18.61 0,0 5.41,11.67 5.31,13.17 -0.1,1.5 0,80.22 0,80.22"
             style="fill:#ffffff;fill-opacity:1;fill-rule:nonzero;stroke:none"
             id="path3187"
             inkscape:connector-curvature="0" /><path
             d="m 1618.91,1832.86 -82.33,-0.21 c 0,0 -7.81,0.65 -15.04,-2.85 -7.26,-3.5 -17.61,-10.34 -20.61,-12.75 -2.98,-2.41 -15.44,-14.91 -18.44,-22.41 -2.99,-7.49 -1.86,-14.12 -1.86,-14.12 l 0,-72.35 87.73,0.01 c 0,0 9.49,0.6 12.27,1.63 2.76,1.04 12.01,4.16 19.78,11.06 0,0 11.68,13.2 13.17,18.59 0,0 5.42,11.68 5.33,13.18 -0.11,1.49 0,80.22 0,80.22"
             style="fill:#ffffff;fill-opacity:1;fill-rule:nonzero;stroke:none"
             id="path3189"
             inkscape:connector-curvature="0" /><path
             d="m 829.363,1980.92 82.317,-0.2 c 0,0 7.8,0.64 15.05,-2.86 7.247,-3.5 17.618,-10.35 20.606,-12.76 2.984,-2.4 15.43,-14.9 18.434,-22.4 2.992,-7.49 1.875,-14.13 1.875,-14.13 l 0,-72.34 -87.735,0 c 0,0 -9.512,0.6 -12.273,1.64 -2.766,1.04 -12,4.15 -19.793,11.05 0,0 -11.66,13.19 -13.164,18.6 0,0 -5.41,11.67 -5.317,13.16 0.102,1.51 0,80.24 0,80.24"
             style="fill:#ffffff;fill-opacity:1;fill-rule:nonzero;stroke:none"
             id="path3191"
             inkscape:connector-curvature="0" /><path
             d="m 1454.79,1981.59 -82.32,-0.21 c 0,0 -7.79,0.64 -15.06,-2.86 -7.23,-3.5 -17.61,-10.34 -20.59,-12.75 -2.98,-2.41 -15.44,-14.91 -18.44,-22.41 -2.99,-7.48 -1.87,-14.13 -1.87,-14.13 l 0,-72.34 87.73,0.01 c 0,0 9.5,0.6 12.27,1.64 2.77,1.03 12,4.16 19.79,11.03 0,0 11.67,13.22 13.17,18.61 0,0 5.41,11.68 5.32,13.18 -0.1,1.49 0,80.23 0,80.23"
             style="fill:#ffffff;fill-opacity:1;fill-rule:nonzero;stroke:none"
             id="path3193"
             inkscape:connector-curvature="0" /><path
             d="m 992.195,1981 82.325,-0.2 c 0,0 7.79,0.65 15.04,-2.85 7.25,-3.5 17.62,-10.34 20.62,-12.75 2.97,-2.41 15.44,-14.92 18.42,-22.41 3,-7.49 1.87,-14.14 1.87,-14.14 l 0,-72.33 -87.73,0 c 0,0 -9.51,0.61 -12.26,1.65 -2.77,1.03 -12.01,4.15 -19.8,11.03 0,0 -11.664,13.21 -13.168,18.61 0,0 -5.41,11.68 -5.317,13.17 0.102,1.5 0,80.22 0,80.22"
             style="fill:#ffffff;fill-opacity:1;fill-rule:nonzero;stroke:none"
             id="path3195"
             inkscape:connector-curvature="0" /><path
             d="m 1292.47,1981 -82.32,-0.2 c 0,0 -7.81,0.65 -15.04,-2.85 -7.26,-3.5 -17.62,-10.34 -20.61,-12.75 -2.99,-2.41 -15.44,-14.92 -18.44,-22.41 -2.98,-7.49 -1.86,-14.14 -1.86,-14.14 l 0,-72.33 87.72,0 c 0,0 9.51,0.61 12.28,1.65 2.76,1.03 12,4.15 19.79,11.03 0,0 11.66,13.21 13.17,18.61 0,0 5.42,11.68 5.31,13.17 -0.1,1.5 0,80.22 0,80.22"
             style="fill:#ffffff;fill-opacity:1;fill-rule:nonzero;stroke:none"
             id="path3197"
             inkscape:connector-curvature="0" /><path
             d="m 503.145,1980.74 82.324,-0.2 c 0,0 7.793,0.64 15.051,-2.86 7.234,-3.5 17.605,-10.34 20.601,-12.75 2.988,-2.41 15.434,-14.91 18.43,-22.41 3,-7.48 1.867,-14.13 1.867,-14.13 l 0,-72.34 -87.727,0 c 0,0 -9.507,0.61 -12.269,1.64 -2.774,1.04 -11.996,4.16 -19.797,11.04 0,0 -11.664,13.22 -13.168,18.61 0,0 -5.41,11.68 -5.312,13.18 0.093,1.49 0,80.22 0,80.22"
             style="fill:#ffffff;fill-opacity:1;fill-rule:nonzero;stroke:none"
             id="path3199"
             inkscape:connector-curvature="0" /><path
             d="m 665.984,1980.83 82.328,-0.2 c 0,0 7.793,0.64 15.04,-2.86 7.246,-3.5 17.617,-10.35 20.601,-12.75 2.988,-2.41 15.434,-14.91 18.43,-22.41 3,-7.49 1.863,-14.14 1.863,-14.14 l 0,-72.33 -87.715,0.02 c 0,0 -9.511,0.59 -12.261,1.63 -2.778,1.03 -12.012,4.15 -19.805,11.05 0,0 -11.672,13.19 -13.164,18.59 0,0 -5.422,11.67 -5.317,13.17 0.102,1.5 0,80.23 0,80.23"
             style="fill:#ffffff;fill-opacity:1;fill-rule:nonzero;stroke:none"
             id="path3201"
             inkscape:connector-curvature="0" /><path
             d="m 1780.6,1981.74 -82.32,-0.2 c 0,0 -7.81,0.64 -15.04,-2.86 -7.25,-3.5 -17.62,-10.35 -20.62,-12.75 -2.97,-2.4 -15.43,-14.91 -18.42,-22.4 -3,-7.5 -1.88,-14.14 -1.88,-14.14 l 0,-72.34 87.74,0.01 c 0,0 9.49,0.6 12.26,1.63 2.78,1.04 12.02,4.15 19.79,11.05 0,0 11.68,13.2 13.16,18.6 0,0 5.43,11.67 5.33,13.18 -0.09,1.49 0,80.22 0,80.22"
             style="fill:#ffffff;fill-opacity:1;fill-rule:nonzero;stroke:none"
             id="path3203"
             inkscape:connector-curvature="0" /><path
             d="m 1618.29,1981.16 -82.33,-0.2 c 0,0 -7.8,0.65 -15.04,-2.86 -7.25,-3.49 -17.62,-10.35 -20.61,-12.75 -2.99,-2.4 -15.44,-14.9 -18.43,-22.41 -3.01,-7.49 -1.87,-14.13 -1.87,-14.13 l 0,-72.33 87.72,0 c 0,0 9.52,0.6 12.28,1.64 2.76,1.03 12,4.15 19.79,11.05 0,0 11.66,13.19 13.17,18.59 0,0 5.42,11.67 5.32,13.17 -0.11,1.51 0,80.23 0,80.23"
             style="fill:#ffffff;fill-opacity:1;fill-rule:nonzero;stroke:none"
             id="path3205"
             inkscape:connector-curvature="0" /><path
             d="m 829.348,2128.61 82.324,-0.22 c 0,0 7.793,0.65 15.047,-2.85 7.246,-3.5 17.605,-10.34 20.593,-12.75 3.008,-2.41 15.442,-14.9 18.442,-22.41 2.996,-7.49 1.875,-14.13 1.875,-14.13 l 0,-72.33 -87.734,0.01 c 0,0 -9.504,0.59 -12.266,1.63 -2.758,1.03 -11.992,4.15 -19.797,11.05 0,0 -11.672,13.19 -13.152,18.59 0,0 -5.434,11.68 -5.332,13.18 0.117,1.49 0,80.23 0,80.23"
             style="fill:#ffffff;fill-opacity:1;fill-rule:nonzero;stroke:none"
             id="path3207"
             inkscape:connector-curvature="0" /><path
             d="m 1454.79,2129.27 -82.34,-0.21 c 0,0 -7.79,0.65 -15.04,-2.85 -7.24,-3.5 -17.62,-10.35 -20.6,-12.75 -2.99,-2.41 -15.43,-14.91 -18.44,-22.41 -2.99,-7.48 -1.88,-14.14 -1.88,-14.14 l 0,-72.34 87.74,0.02 c 0,0 9.51,0.59 12.27,1.63 2.77,1.03 11.99,4.15 19.8,11.05 0,0 11.66,13.21 13.16,18.59 0,0 5.42,11.68 5.33,13.18 -0.1,1.5 0,80.23 0,80.23"
             style="fill:#ffffff;fill-opacity:1;fill-rule:nonzero;stroke:none"
             id="path3209"
             inkscape:connector-curvature="0" /><path
             d="m 992.195,2128.69 82.315,-0.2 c 0,0 7.8,0.64 15.04,-2.86 7.26,-3.5 17.63,-10.34 20.62,-12.75 2.98,-2.4 15.43,-14.91 18.43,-22.4 2.99,-7.5 1.87,-14.14 1.87,-14.14 l 0,-72.34 -87.73,0.02 c 0,0 -9.51,0.59 -12.27,1.62 -2.76,1.04 -12.01,4.16 -19.8,11.05 0,0 -11.654,13.2 -13.158,18.6 0,0 -5.41,11.67 -5.317,13.18 0.102,1.5 0,80.22 0,80.22"
             style="fill:#ffffff;fill-opacity:1;fill-rule:nonzero;stroke:none"
             id="path3211"
             inkscape:connector-curvature="0" /><path
             d="m 1292.46,2128.69 -82.32,-0.2 c 0,0 -7.81,0.64 -15.05,-2.86 -7.25,-3.5 -17.61,-10.34 -20.61,-12.75 -2.98,-2.4 -15.43,-14.91 -18.43,-22.4 -2.99,-7.5 -1.86,-14.14 -1.86,-14.14 l 0,-72.34 87.72,0.02 c 0,0 9.51,0.59 12.28,1.62 2.76,1.04 12,4.16 19.78,11.05 0,0 11.68,13.2 13.17,18.6 0,0 5.43,11.67 5.32,13.18 -0.1,1.5 0,80.22 0,80.22"
             style="fill:#ffffff;fill-opacity:1;fill-rule:nonzero;stroke:none"
             id="path3213"
             inkscape:connector-curvature="0" /><path
             d="m 665.977,2128.52 82.316,-0.21 c 0,0 7.801,0.64 15.035,-2.86 7.258,-3.49 17.629,-10.34 20.625,-12.74 2.973,-2.42 15.434,-14.92 18.418,-22.41 3.012,-7.49 1.875,-14.14 1.875,-14.14 l 0,-72.32 -87.73,0 c 0,0 -9.504,0.6 -12.27,1.64 -2.769,1.02 -12,4.14 -19.793,11.04 0,0 -11.672,13.2 -13.176,18.59 0,0 -5.41,11.68 -5.3,13.18 0.085,1.5 0,80.23 0,80.23"
             style="fill:#ffffff;fill-opacity:1;fill-rule:nonzero;stroke:none"
             id="path3215"
             inkscape:connector-curvature="0" /><path
             d="m 1618.28,2128.85 -82.32,-0.21 c 0,0 -7.82,0.64 -15.04,-2.85 -7.25,-3.5 -17.63,-10.35 -20.62,-12.76 -2.99,-2.41 -15.44,-14.9 -18.43,-22.4 -3,-7.49 -1.87,-14.14 -1.87,-14.14 l 0,-72.33 87.72,0.01 c 0,0 9.51,0.6 12.28,1.64 2.76,1.03 12,4.14 19.79,11.04 0,0 11.67,13.2 13.16,18.6 0,0 5.43,11.67 5.33,13.17 -0.11,1.51 0,80.23 0,80.23"
             style="fill:#ffffff;fill-opacity:1;fill-rule:nonzero;stroke:none"
             id="path3217"
             inkscape:connector-curvature="0" /><path
             d="m 992.645,2276.65 82.335,-0.21 c 0,0 7.78,0.65 15.04,-2.85 7.25,-3.5 17.63,-10.34 20.61,-12.75 2.98,-2.41 15.43,-14.91 18.42,-22.41 3.01,-7.49 1.88,-14.14 1.88,-14.14 l 0,-72.32 -87.73,0 c 0,0 -9.5,0.6 -12.27,1.64 -2.77,1.03 -12,4.15 -19.8,11.04 0,0 -11.665,13.21 -13.15,18.59 0,0 -5.429,11.68 -5.335,13.18 0.109,1.5 0,80.23 0,80.23"
             style="fill:#ffffff;fill-opacity:1;fill-rule:nonzero;stroke:none"
             id="path3219"
             inkscape:connector-curvature="0" /><path
             d="m 1292.93,2276.65 -82.33,-0.21 c 0,0 -7.8,0.65 -15.04,-2.85 -7.24,-3.5 -17.62,-10.34 -20.61,-12.75 -2.99,-2.41 -15.43,-14.91 -18.44,-22.41 -2.98,-7.49 -1.86,-14.14 -1.86,-14.14 l 0,-72.32 87.73,0 c 0,0 9.5,0.6 12.27,1.64 2.76,1.03 12,4.15 19.79,11.04 0,0 11.66,13.21 13.17,18.59 0,0 5.41,11.68 5.32,13.18 -0.1,1.5 0,80.23 0,80.23"
             style="fill:#ffffff;fill-opacity:1;fill-rule:nonzero;stroke:none"
             id="path3221"
             inkscape:connector-curvature="0" /></g></g></g></g></svg>